<?xml version="1.0" encoding="UTF-8"?>
<svg xmlns="http://www.w3.org/2000/svg" width="512" height="512" viewBox="0 0 512 512">
  <defs>
    <linearGradient id="tile" x1="128" y1="48" x2="384" y2="464" gradientUnits="userSpaceOnUse">
      <stop offset="0" stop-color="#ffb04a"/>
      <stop offset="0.55" stop-color="#f76a37"/>
      <stop offset="1" stop-color="#e94a2f"/>
    </linearGradient>
    <linearGradient id="tile-front" x1="256" y1="350" x2="256" y2="462" gradientUnits="userSpaceOnUse">
      <stop offset="0" stop-color="#d94431" stop-opacity="0"/>
      <stop offset="1" stop-color="#c9392f" stop-opacity="0.85"/>
    </linearGradient>
    <radialGradient id="record" cx="206" cy="182" r="190" gradientUnits="userSpaceOnUse">
      <stop offset="0" stop-color="#6d2545"/>
      <stop offset="1" stop-color="#3c1d35"/>
    </radialGradient>
    <mask id="record-cutout" maskUnits="userSpaceOnUse">
      <rect width="512" height="512" fill="#fff"/>
      <g transform="translate(-8 2) translate(234 252) scale(1.069) translate(-234 -252)">
        <path d="M361.5 132v110l-43 70" fill="none" stroke="#000" stroke-width="16" stroke-linecap="butt" stroke-linejoin="bevel"/>
        <g transform="translate(318 312) rotate(32)">
          <rect x="-15" y="-8" width="30" height="38" fill="#000"/>
          <rect x="-5" y="27" width="10" height="18" rx="5" fill="#000"/>
        </g>
      </g>
    </mask>
  </defs>

  <rect x="50" y="50" width="412" height="412" rx="68" fill="url(#tile)"/>
  <path d="M50 336c70 22 132 30 206 30s136-8 206-30v58c0 38-30 68-68 68H118c-38 0-68-30-68-68z" fill="url(#tile-front)"/>

  <g transform="translate(22 2) translate(234 252) scale(1.069) translate(-234 -252)" mask="url(#record-cutout)">
    <circle cx="234" cy="252" r="160" fill="url(#record)"/>
    <circle cx="234" cy="252" r="72" fill="#fb7137"/>
    <circle cx="234" cy="252" r="22" fill="#4b1e39"/>

    <path d="M130 252a104 104 0 0 1 104-104" fill="none" stroke="#f47a3a" stroke-width="9" stroke-linecap="round" opacity="0.95"/>
    <path d="M164 326a104 104 0 0 1-28-43" fill="none" stroke="#f47a3a" stroke-width="9" stroke-linecap="round" opacity="0.95"/>
    <path d="M268 151a104 104 0 0 1 45 18" fill="none" stroke="#f47a3a" stroke-width="9" stroke-linecap="round" opacity="0.95"/>
    <path d="M110 252a124 124 0 0 1 124-124" fill="none" stroke="#f47a3a" stroke-width="6" stroke-linecap="round" opacity="0.78"/>
    <path d="M150 351a124 124 0 0 1-35-57" fill="none" stroke="#f47a3a" stroke-width="6" stroke-linecap="round" opacity="0.78"/>
    <path d="M272 131a124 124 0 0 1 59 24" fill="none" stroke="#f47a3a" stroke-width="6" stroke-linecap="round" opacity="0.78"/>
    <path d="M92 252a142 142 0 0 1 142-142" fill="none" stroke="#f47a3a" stroke-width="5" stroke-linecap="round" opacity="0.58"/>
    <path d="M141 368a142 142 0 0 1-43-72" fill="none" stroke="#f47a3a" stroke-width="5" stroke-linecap="round" opacity="0.58"/>
  </g>
</svg>
